<svg xmlns="http://www.w3.org/2000/svg" viewBox="0 0 1400 900" role="img" aria-labelledby="title desc">
  <title id="title">Running fatigue sensor concept</title>
  <desc id="desc">Minimal illustration of a runner silhouette, wearable sensors, and gait signal traces.</desc>
  <rect width="1400" height="900" fill="#f5f5f7"/>
  <path d="M0 700 C260 620 360 740 560 680 C770 616 906 674 1075 626 C1227 583 1318 612 1400 575 L1400 900 L0 900 Z" fill="#e7edf1"/>
  <g fill="none" stroke-linecap="round" stroke-linejoin="round">
    <path d="M705 238 C670 270 660 320 684 358 C711 400 772 404 805 369 C835 338 832 289 800 258 C774 232 735 222 705 238 Z" stroke="#1d1d1f" stroke-width="18"/>
    <path d="M744 405 L708 520 L646 640" stroke="#1d1d1f" stroke-width="22"/>
    <path d="M744 405 L840 496 L930 462" stroke="#1d1d1f" stroke-width="22"/>
    <path d="M708 520 L820 650 L790 775" stroke="#1d1d1f" stroke-width="22"/>
    <path d="M708 520 L594 655 L498 742" stroke="#1d1d1f" stroke-width="22"/>
    <path d="M693 330 L600 402 L520 398" stroke="#1d1d1f" stroke-width="18"/>
    <path d="M783 340 L882 378 L956 448" stroke="#1d1d1f" stroke-width="18"/>
  </g>
  <g>
    <circle cx="744" cy="405" r="22" fill="#2f7d67"/>
    <circle cx="820" cy="650" r="18" fill="#315f8f"/>
    <circle cx="594" cy="655" r="18" fill="#b87918"/>
    <circle cx="882" cy="378" r="16" fill="#b54a38"/>
  </g>
  <g fill="none" stroke-width="8" stroke-linecap="round">
    <path d="M130 300 C210 220 290 380 370 300 C450 220 530 380 610 300" stroke="#2f7d67"/>
    <path d="M130 390 C235 340 285 440 390 390 C495 340 545 440 650 390" stroke="#315f8f"/>
    <path d="M810 165 C930 115 1000 220 1120 170 C1210 132 1270 168 1330 140" stroke="#b87918"/>
  </g>
  <g font-family="Arial, Helvetica, sans-serif" fill="#1d1d1f">
    <text x="116" y="128" font-size="58" font-weight="700">Fatigue-related gait change</text>
    <text x="118" y="182" font-size="28" fill="#657282">Wearable IMU signals compared against a personal baseline</text>
    <text x="1115" y="820" font-size="24" font-weight="700">Cadence</text>
    <text x="1115" y="855" font-size="24" font-weight="700">Symmetry</text>
    <text x="1115" y="890" font-size="24" font-weight="700">Trunk motion</text>
  </g>
</svg>
